<mxfile host="app.diagrams.net" modified="2022-08-18T14:27:14.785Z" agent="5.0 (Macintosh; Intel Mac OS X 10_15_7) AppleWebKit/605.1.15 (KHTML, like Gecko) Version/15.6 Safari/605.1.15" etag="B-dEYuwlx3eBWCuj-JpG" version="20.2.4" type="github" pages="2">
  <diagram id="C5RBs43oDa-KdzZeNtuy" name="Page-1">
    <mxGraphModel dx="1037" dy="864" grid="1" gridSize="10" guides="1" tooltips="1" connect="1" arrows="1" fold="1" page="1" pageScale="1" pageWidth="3300" pageHeight="2339" math="0" shadow="0">
      <root>
        <mxCell id="WIyWlLk6GJQsqaUBKTNV-0" />
        <mxCell id="WIyWlLk6GJQsqaUBKTNV-1" parent="WIyWlLk6GJQsqaUBKTNV-0" />
        <mxCell id="ISS-MAZRoN_019uG36cg-2" value="" style="edgeStyle=orthogonalEdgeStyle;rounded=0;orthogonalLoop=1;jettySize=auto;html=1;" parent="WIyWlLk6GJQsqaUBKTNV-1" source="ISS-MAZRoN_019uG36cg-0" target="ISS-MAZRoN_019uG36cg-4" edge="1">
          <mxGeometry relative="1" as="geometry">
            <mxPoint x="580" y="490" as="targetPoint" />
          </mxGeometry>
        </mxCell>
        <mxCell id="ISS-MAZRoN_019uG36cg-0" value="Start" style="ellipse;whiteSpace=wrap;html=1;" parent="WIyWlLk6GJQsqaUBKTNV-1" vertex="1">
          <mxGeometry x="360" y="450" width="120" height="80" as="geometry" />
        </mxCell>
        <mxCell id="ISS-MAZRoN_019uG36cg-6" value="" style="edgeStyle=orthogonalEdgeStyle;rounded=0;orthogonalLoop=1;jettySize=auto;html=1;" parent="WIyWlLk6GJQsqaUBKTNV-1" source="ISS-MAZRoN_019uG36cg-4" target="ISS-MAZRoN_019uG36cg-5" edge="1">
          <mxGeometry relative="1" as="geometry" />
        </mxCell>
        <mxCell id="ISS-MAZRoN_019uG36cg-4" value="config 파싱" style="rounded=0;whiteSpace=wrap;html=1;" parent="WIyWlLk6GJQsqaUBKTNV-1" vertex="1">
          <mxGeometry x="580" y="460" width="120" height="60" as="geometry" />
        </mxCell>
        <mxCell id="ISS-MAZRoN_019uG36cg-8" value="" style="edgeStyle=orthogonalEdgeStyle;rounded=0;orthogonalLoop=1;jettySize=auto;html=1;" parent="WIyWlLk6GJQsqaUBKTNV-1" source="ISS-MAZRoN_019uG36cg-5" target="ISS-MAZRoN_019uG36cg-7" edge="1">
          <mxGeometry relative="1" as="geometry" />
        </mxCell>
        <mxCell id="ISS-MAZRoN_019uG36cg-5" value="config 객체 생성&lt;br&gt;(공통 설정 및 포트별 서버 설정 벡터가 있음)" style="rounded=0;whiteSpace=wrap;html=1;" parent="WIyWlLk6GJQsqaUBKTNV-1" vertex="1">
          <mxGeometry x="790" y="460" width="120" height="60" as="geometry" />
        </mxCell>
        <mxCell id="ISS-MAZRoN_019uG36cg-12" value="" style="edgeStyle=orthogonalEdgeStyle;rounded=0;orthogonalLoop=1;jettySize=auto;html=1;" parent="WIyWlLk6GJQsqaUBKTNV-1" source="ISS-MAZRoN_019uG36cg-7" target="ISS-MAZRoN_019uG36cg-11" edge="1">
          <mxGeometry relative="1" as="geometry" />
        </mxCell>
        <mxCell id="ISS-MAZRoN_019uG36cg-7" value="Router 생성&lt;br&gt;(Router가 config 객체를 읽어서 vservt생성, port별 listen)" style="rounded=0;whiteSpace=wrap;html=1;" parent="WIyWlLk6GJQsqaUBKTNV-1" vertex="1">
          <mxGeometry x="1010" y="460" width="120" height="60" as="geometry" />
        </mxCell>
        <mxCell id="ISS-MAZRoN_019uG36cg-81" value="" style="edgeStyle=orthogonalEdgeStyle;rounded=0;orthogonalLoop=1;jettySize=auto;html=1;" parent="WIyWlLk6GJQsqaUBKTNV-1" source="ISS-MAZRoN_019uG36cg-11" target="ISS-MAZRoN_019uG36cg-80" edge="1">
          <mxGeometry relative="1" as="geometry" />
        </mxCell>
        <mxCell id="ISS-MAZRoN_019uG36cg-11" value="while(1)&lt;br&gt;kevent 대기" style="whiteSpace=wrap;html=1;rounded=0;" parent="WIyWlLk6GJQsqaUBKTNV-1" vertex="1">
          <mxGeometry x="1210" y="460" width="120" height="60" as="geometry" />
        </mxCell>
        <mxCell id="ISS-MAZRoN_019uG36cg-31" value="YES" style="edgeStyle=orthogonalEdgeStyle;rounded=0;orthogonalLoop=1;jettySize=auto;html=1;" parent="WIyWlLk6GJQsqaUBKTNV-1" source="ISS-MAZRoN_019uG36cg-28" target="ISS-MAZRoN_019uG36cg-30" edge="1">
          <mxGeometry relative="1" as="geometry" />
        </mxCell>
        <mxCell id="M5Lqf-6Z3WXa5kHZtdqc-0" style="edgeStyle=orthogonalEdgeStyle;rounded=0;orthogonalLoop=1;jettySize=auto;html=1;exitX=0.5;exitY=0;exitDx=0;exitDy=0;entryX=0.75;entryY=1;entryDx=0;entryDy=0;" parent="WIyWlLk6GJQsqaUBKTNV-1" source="ISS-MAZRoN_019uG36cg-28" target="ISS-MAZRoN_019uG36cg-11" edge="1">
          <mxGeometry relative="1" as="geometry">
            <Array as="points">
              <mxPoint x="1735" y="850" />
              <mxPoint x="1300" y="850" />
            </Array>
          </mxGeometry>
        </mxCell>
        <mxCell id="M5Lqf-6Z3WXa5kHZtdqc-1" value="NO" style="edgeLabel;html=1;align=center;verticalAlign=middle;resizable=0;points=[];" parent="M5Lqf-6Z3WXa5kHZtdqc-0" vertex="1" connectable="0">
          <mxGeometry x="-0.2067" relative="1" as="geometry">
            <mxPoint as="offset" />
          </mxGeometry>
        </mxCell>
        <mxCell id="ISS-MAZRoN_019uG36cg-28" value="HTTP REQ 파싱&lt;br&gt;REQ 수신 완료?" style="rhombus;whiteSpace=wrap;html=1;rounded=0;" parent="WIyWlLk6GJQsqaUBKTNV-1" vertex="1">
          <mxGeometry x="1630" y="750" width="210" height="80" as="geometry" />
        </mxCell>
        <mxCell id="ISS-MAZRoN_019uG36cg-34" value="" style="edgeStyle=orthogonalEdgeStyle;rounded=0;orthogonalLoop=1;jettySize=auto;html=1;entryX=0;entryY=0.5;entryDx=0;entryDy=0;" parent="WIyWlLk6GJQsqaUBKTNV-1" source="ISS-MAZRoN_019uG36cg-30" edge="1">
          <mxGeometry relative="1" as="geometry">
            <mxPoint x="2250" y="800" as="targetPoint" />
            <Array as="points">
              <mxPoint x="2230" y="800" />
              <mxPoint x="2230" y="800" />
            </Array>
          </mxGeometry>
        </mxCell>
        <mxCell id="ISS-MAZRoN_019uG36cg-30" value="요청에 맞는 VServ로 라우팅" style="whiteSpace=wrap;html=1;rounded=0;" parent="WIyWlLk6GJQsqaUBKTNV-1" vertex="1">
          <mxGeometry x="1935.95" y="760" width="185" height="60" as="geometry" />
        </mxCell>
        <mxCell id="ISS-MAZRoN_019uG36cg-37" value="YES" style="edgeStyle=orthogonalEdgeStyle;rounded=0;orthogonalLoop=1;jettySize=auto;html=1;" parent="WIyWlLk6GJQsqaUBKTNV-1" target="ISS-MAZRoN_019uG36cg-36" edge="1">
          <mxGeometry relative="1" as="geometry">
            <Array as="points">
              <mxPoint x="2338" y="910" />
            </Array>
            <mxPoint x="2337.5" y="840" as="sourcePoint" />
          </mxGeometry>
        </mxCell>
        <mxCell id="ISS-MAZRoN_019uG36cg-39" value="NO" style="edgeStyle=orthogonalEdgeStyle;rounded=0;orthogonalLoop=1;jettySize=auto;html=1;" parent="WIyWlLk6GJQsqaUBKTNV-1" target="ISS-MAZRoN_019uG36cg-38" edge="1">
          <mxGeometry relative="1" as="geometry">
            <mxPoint x="2337.5" y="840" as="sourcePoint" />
          </mxGeometry>
        </mxCell>
        <mxCell id="ISS-MAZRoN_019uG36cg-35" value="Vserv에서 판단&lt;br&gt;is CGI?" style="rhombus;whiteSpace=wrap;html=1;" parent="WIyWlLk6GJQsqaUBKTNV-1" vertex="1">
          <mxGeometry x="2250" y="760" width="175" height="80" as="geometry" />
        </mxCell>
        <mxCell id="ISS-MAZRoN_019uG36cg-41" value="" style="edgeStyle=orthogonalEdgeStyle;rounded=0;orthogonalLoop=1;jettySize=auto;html=1;entryX=0.5;entryY=0;entryDx=0;entryDy=0;" parent="WIyWlLk6GJQsqaUBKTNV-1" source="ISS-MAZRoN_019uG36cg-36" target="ISS-MAZRoN_019uG36cg-42" edge="1">
          <mxGeometry relative="1" as="geometry">
            <mxPoint x="1583.44" y="910" as="targetPoint" />
            <Array as="points">
              <mxPoint x="1638.44" y="910" />
            </Array>
          </mxGeometry>
        </mxCell>
        <mxCell id="ISS-MAZRoN_019uG36cg-36" value="Call CGI" style="whiteSpace=wrap;html=1;" parent="WIyWlLk6GJQsqaUBKTNV-1" vertex="1">
          <mxGeometry x="1913.44" y="880" width="175" height="60" as="geometry" />
        </mxCell>
        <mxCell id="ISS-MAZRoN_019uG36cg-76" value="" style="edgeStyle=orthogonalEdgeStyle;rounded=0;orthogonalLoop=1;jettySize=auto;html=1;entryX=0.32;entryY=0.988;entryDx=0;entryDy=0;entryPerimeter=0;" parent="WIyWlLk6GJQsqaUBKTNV-1" source="ISS-MAZRoN_019uG36cg-38" target="ISS-MAZRoN_019uG36cg-11" edge="1">
          <mxGeometry relative="1" as="geometry">
            <mxPoint x="1250" y="550" as="targetPoint" />
            <Array as="points">
              <mxPoint x="2338" y="1250" />
              <mxPoint x="1250" y="1250" />
              <mxPoint x="1250" y="522" />
              <mxPoint x="1248" y="522" />
            </Array>
          </mxGeometry>
        </mxCell>
        <mxCell id="ISS-MAZRoN_019uG36cg-38" value="HTTP RES 생성&lt;br&gt;Read Event disable&lt;br&gt;Write Event on" style="whiteSpace=wrap;html=1;" parent="WIyWlLk6GJQsqaUBKTNV-1" vertex="1">
          <mxGeometry x="2277.5" y="1080" width="120" height="120" as="geometry" />
        </mxCell>
        <mxCell id="ISS-MAZRoN_019uG36cg-45" value="PARENT" style="edgeStyle=orthogonalEdgeStyle;rounded=0;orthogonalLoop=1;jettySize=auto;html=1;" parent="WIyWlLk6GJQsqaUBKTNV-1" source="ISS-MAZRoN_019uG36cg-42" target="ISS-MAZRoN_019uG36cg-44" edge="1">
          <mxGeometry relative="1" as="geometry" />
        </mxCell>
        <mxCell id="ISS-MAZRoN_019uG36cg-49" value="CHILD" style="edgeStyle=orthogonalEdgeStyle;rounded=0;orthogonalLoop=1;jettySize=auto;html=1;" parent="WIyWlLk6GJQsqaUBKTNV-1" source="ISS-MAZRoN_019uG36cg-42" target="ISS-MAZRoN_019uG36cg-48" edge="1">
          <mxGeometry relative="1" as="geometry" />
        </mxCell>
        <mxCell id="ISS-MAZRoN_019uG36cg-42" value="fork" style="rhombus;whiteSpace=wrap;html=1;" parent="WIyWlLk6GJQsqaUBKTNV-1" vertex="1">
          <mxGeometry x="1591.5700000000002" y="960" width="93.75" height="80" as="geometry" />
        </mxCell>
        <mxCell id="ISS-MAZRoN_019uG36cg-47" value="" style="edgeStyle=orthogonalEdgeStyle;rounded=0;orthogonalLoop=1;jettySize=auto;html=1;" parent="WIyWlLk6GJQsqaUBKTNV-1" source="ISS-MAZRoN_019uG36cg-44" target="ISS-MAZRoN_019uG36cg-46" edge="1">
          <mxGeometry relative="1" as="geometry" />
        </mxCell>
        <mxCell id="ISS-MAZRoN_019uG36cg-44" value="pipe의 Read-end를 event로 등록" style="whiteSpace=wrap;html=1;" parent="WIyWlLk6GJQsqaUBKTNV-1" vertex="1">
          <mxGeometry x="1768.4450000000002" y="970" width="120" height="60" as="geometry" />
        </mxCell>
        <mxCell id="ISS-MAZRoN_019uG36cg-46" value="해당 client socket의 read event disable" style="whiteSpace=wrap;html=1;" parent="WIyWlLk6GJQsqaUBKTNV-1" vertex="1">
          <mxGeometry x="1968.4450000000002" y="970" width="120" height="60" as="geometry" />
        </mxCell>
        <mxCell id="ISS-MAZRoN_019uG36cg-51" value="" style="edgeStyle=orthogonalEdgeStyle;rounded=0;orthogonalLoop=1;jettySize=auto;html=1;" parent="WIyWlLk6GJQsqaUBKTNV-1" source="ISS-MAZRoN_019uG36cg-48" target="ISS-MAZRoN_019uG36cg-52" edge="1">
          <mxGeometry relative="1" as="geometry">
            <mxPoint x="1638.4450000000002" y="1270" as="targetPoint" />
          </mxGeometry>
        </mxCell>
        <mxCell id="ISS-MAZRoN_019uG36cg-48" value="해당 CGI execve" style="whiteSpace=wrap;html=1;" parent="WIyWlLk6GJQsqaUBKTNV-1" vertex="1">
          <mxGeometry x="1578.4450000000002" y="1130" width="120" height="60" as="geometry" />
        </mxCell>
        <mxCell id="ISS-MAZRoN_019uG36cg-54" value="" style="edgeStyle=orthogonalEdgeStyle;rounded=0;orthogonalLoop=1;jettySize=auto;html=1;" parent="WIyWlLk6GJQsqaUBKTNV-1" source="ISS-MAZRoN_019uG36cg-52" target="ISS-MAZRoN_019uG36cg-53" edge="1">
          <mxGeometry relative="1" as="geometry" />
        </mxCell>
        <mxCell id="ISS-MAZRoN_019uG36cg-57" value="YES" style="edgeStyle=orthogonalEdgeStyle;rounded=0;orthogonalLoop=1;jettySize=auto;html=1;" parent="WIyWlLk6GJQsqaUBKTNV-1" source="ISS-MAZRoN_019uG36cg-52" edge="1">
          <mxGeometry relative="1" as="geometry">
            <mxPoint x="1280" y="520" as="targetPoint" />
            <Array as="points">
              <mxPoint x="1829" y="1220" />
              <mxPoint x="1280" y="1220" />
            </Array>
          </mxGeometry>
        </mxCell>
        <mxCell id="ISS-MAZRoN_019uG36cg-52" value="execve 성공?" style="rhombus;whiteSpace=wrap;html=1;" parent="WIyWlLk6GJQsqaUBKTNV-1" vertex="1">
          <mxGeometry x="1760.01" y="1120" width="136.88" height="80" as="geometry" />
        </mxCell>
        <mxCell id="ISS-MAZRoN_019uG36cg-55" value="NO" style="edgeStyle=orthogonalEdgeStyle;rounded=0;orthogonalLoop=1;jettySize=auto;html=1;" parent="WIyWlLk6GJQsqaUBKTNV-1" source="ISS-MAZRoN_019uG36cg-53" target="ISS-MAZRoN_019uG36cg-52" edge="1">
          <mxGeometry relative="1" as="geometry" />
        </mxCell>
        <mxCell id="ISS-MAZRoN_019uG36cg-53" value="child EXIT" style="whiteSpace=wrap;html=1;" parent="WIyWlLk6GJQsqaUBKTNV-1" vertex="1">
          <mxGeometry x="1997.8100000000002" y="1130" width="120" height="60" as="geometry" />
        </mxCell>
        <mxCell id="ISS-MAZRoN_019uG36cg-61" value="HTTP" style="edgeStyle=orthogonalEdgeStyle;rounded=0;orthogonalLoop=1;jettySize=auto;html=1;entryX=0;entryY=0.5;entryDx=0;entryDy=0;" parent="WIyWlLk6GJQsqaUBKTNV-1" source="ISS-MAZRoN_019uG36cg-59" target="ISS-MAZRoN_019uG36cg-28" edge="1">
          <mxGeometry relative="1" as="geometry" />
        </mxCell>
        <mxCell id="ISS-MAZRoN_019uG36cg-63" value="CGI" style="edgeStyle=orthogonalEdgeStyle;rounded=0;orthogonalLoop=1;jettySize=auto;html=1;entryX=0.5;entryY=0;entryDx=0;entryDy=0;" parent="WIyWlLk6GJQsqaUBKTNV-1" source="ISS-MAZRoN_019uG36cg-59" target="ISS-MAZRoN_019uG36cg-65" edge="1">
          <mxGeometry relative="1" as="geometry">
            <mxPoint x="1420" y="970" as="targetPoint" />
          </mxGeometry>
        </mxCell>
        <mxCell id="ISS-MAZRoN_019uG36cg-59" value="CGI Response&lt;br&gt;or&lt;br&gt;HTTP Request" style="rhombus;whiteSpace=wrap;html=1;" parent="WIyWlLk6GJQsqaUBKTNV-1" vertex="1">
          <mxGeometry x="1400" y="750" width="140" height="80" as="geometry" />
        </mxCell>
        <mxCell id="ISS-MAZRoN_019uG36cg-67" value="YES" style="edgeStyle=orthogonalEdgeStyle;rounded=0;orthogonalLoop=1;jettySize=auto;html=1;" parent="WIyWlLk6GJQsqaUBKTNV-1" source="ISS-MAZRoN_019uG36cg-65" target="ISS-MAZRoN_019uG36cg-66" edge="1">
          <mxGeometry relative="1" as="geometry" />
        </mxCell>
        <mxCell id="ISS-MAZRoN_019uG36cg-69" value="NO" style="edgeStyle=orthogonalEdgeStyle;rounded=0;orthogonalLoop=1;jettySize=auto;html=1;" parent="WIyWlLk6GJQsqaUBKTNV-1" source="ISS-MAZRoN_019uG36cg-65" edge="1">
          <mxGeometry relative="1" as="geometry">
            <mxPoint x="1320" y="520" as="targetPoint" />
            <Array as="points">
              <mxPoint x="1320" y="920" />
              <mxPoint x="1320" y="520" />
            </Array>
          </mxGeometry>
        </mxCell>
        <mxCell id="ISS-MAZRoN_019uG36cg-65" value="CGI Response 완성?" style="rhombus;whiteSpace=wrap;html=1;" parent="WIyWlLk6GJQsqaUBKTNV-1" vertex="1">
          <mxGeometry x="1400" y="950" width="140" height="80" as="geometry" />
        </mxCell>
        <mxCell id="ISS-MAZRoN_019uG36cg-74" value="" style="edgeStyle=orthogonalEdgeStyle;rounded=0;orthogonalLoop=1;jettySize=auto;html=1;entryX=0.25;entryY=1;entryDx=0;entryDy=0;" parent="WIyWlLk6GJQsqaUBKTNV-1" source="ISS-MAZRoN_019uG36cg-66" target="ISS-MAZRoN_019uG36cg-38" edge="1">
          <mxGeometry relative="1" as="geometry">
            <mxPoint x="1400" y="1270" as="targetPoint" />
            <Array as="points">
              <mxPoint x="1470" y="1300" />
              <mxPoint x="2308" y="1300" />
            </Array>
          </mxGeometry>
        </mxCell>
        <mxCell id="ISS-MAZRoN_019uG36cg-66" value="CGI 파싱 후&lt;br&gt;HTTP response로 변환" style="whiteSpace=wrap;html=1;" parent="WIyWlLk6GJQsqaUBKTNV-1" vertex="1">
          <mxGeometry x="1405" y="1140" width="130" height="60" as="geometry" />
        </mxCell>
        <mxCell id="ISS-MAZRoN_019uG36cg-83" value="WRITE" style="edgeStyle=orthogonalEdgeStyle;rounded=0;orthogonalLoop=1;jettySize=auto;html=1;" parent="WIyWlLk6GJQsqaUBKTNV-1" source="ISS-MAZRoN_019uG36cg-80" target="ISS-MAZRoN_019uG36cg-82" edge="1">
          <mxGeometry relative="1" as="geometry" />
        </mxCell>
        <mxCell id="ISS-MAZRoN_019uG36cg-84" value="READ" style="edgeStyle=orthogonalEdgeStyle;rounded=0;orthogonalLoop=1;jettySize=auto;html=1;exitX=0.5;exitY=1;exitDx=0;exitDy=0;entryX=0.5;entryY=0;entryDx=0;entryDy=0;" parent="WIyWlLk6GJQsqaUBKTNV-1" source="ISS-MAZRoN_019uG36cg-80" target="M5Lqf-6Z3WXa5kHZtdqc-2" edge="1">
          <mxGeometry relative="1" as="geometry">
            <mxPoint x="1470" y="600" as="targetPoint" />
            <Array as="points" />
          </mxGeometry>
        </mxCell>
        <mxCell id="ISS-MAZRoN_019uG36cg-80" value="Read&lt;br&gt;or&lt;br&gt;Write" style="rhombus;whiteSpace=wrap;html=1;rounded=0;" parent="WIyWlLk6GJQsqaUBKTNV-1" vertex="1">
          <mxGeometry x="1430" y="450" width="80" height="80" as="geometry" />
        </mxCell>
        <mxCell id="ISS-MAZRoN_019uG36cg-86" value="" style="edgeStyle=orthogonalEdgeStyle;rounded=0;orthogonalLoop=1;jettySize=auto;html=1;" parent="WIyWlLk6GJQsqaUBKTNV-1" source="ISS-MAZRoN_019uG36cg-82" target="ISS-MAZRoN_019uG36cg-85" edge="1">
          <mxGeometry relative="1" as="geometry" />
        </mxCell>
        <mxCell id="ISS-MAZRoN_019uG36cg-82" value="client에 송신" style="whiteSpace=wrap;html=1;rounded=0;" parent="WIyWlLk6GJQsqaUBKTNV-1" vertex="1">
          <mxGeometry x="1740" y="460" width="160" height="60" as="geometry" />
        </mxCell>
        <mxCell id="ISS-MAZRoN_019uG36cg-88" value="NO" style="edgeStyle=orthogonalEdgeStyle;rounded=0;orthogonalLoop=1;jettySize=auto;html=1;" parent="WIyWlLk6GJQsqaUBKTNV-1" source="ISS-MAZRoN_019uG36cg-85" target="ISS-MAZRoN_019uG36cg-87" edge="1">
          <mxGeometry relative="1" as="geometry" />
        </mxCell>
        <mxCell id="ISS-MAZRoN_019uG36cg-90" value="YES" style="edgeStyle=orthogonalEdgeStyle;rounded=0;orthogonalLoop=1;jettySize=auto;html=1;" parent="WIyWlLk6GJQsqaUBKTNV-1" source="ISS-MAZRoN_019uG36cg-85" target="ISS-MAZRoN_019uG36cg-89" edge="1">
          <mxGeometry relative="1" as="geometry">
            <Array as="points">
              <mxPoint x="2060" y="590" />
            </Array>
          </mxGeometry>
        </mxCell>
        <mxCell id="ISS-MAZRoN_019uG36cg-85" value="is&lt;br&gt;Keep Alive?" style="rhombus;whiteSpace=wrap;html=1;rounded=0;" parent="WIyWlLk6GJQsqaUBKTNV-1" vertex="1">
          <mxGeometry x="2020" y="450" width="80" height="80" as="geometry" />
        </mxCell>
        <mxCell id="ISS-MAZRoN_019uG36cg-87" value="Socket close" style="whiteSpace=wrap;html=1;rounded=0;" parent="WIyWlLk6GJQsqaUBKTNV-1" vertex="1">
          <mxGeometry x="2270" y="460" width="120" height="60" as="geometry" />
        </mxCell>
        <mxCell id="ISS-MAZRoN_019uG36cg-89" value="Socket maintain" style="whiteSpace=wrap;html=1;rounded=0;" parent="WIyWlLk6GJQsqaUBKTNV-1" vertex="1">
          <mxGeometry x="2270" y="560" width="120" height="60" as="geometry" />
        </mxCell>
        <mxCell id="M5Lqf-6Z3WXa5kHZtdqc-3" style="edgeStyle=orthogonalEdgeStyle;rounded=0;orthogonalLoop=1;jettySize=auto;html=1;exitX=0.5;exitY=1;exitDx=0;exitDy=0;entryX=0.5;entryY=0;entryDx=0;entryDy=0;" parent="WIyWlLk6GJQsqaUBKTNV-1" source="M5Lqf-6Z3WXa5kHZtdqc-2" target="ISS-MAZRoN_019uG36cg-59" edge="1">
          <mxGeometry relative="1" as="geometry" />
        </mxCell>
        <mxCell id="M5Lqf-6Z3WXa5kHZtdqc-4" value="NO" style="edgeLabel;html=1;align=center;verticalAlign=middle;resizable=0;points=[];" parent="M5Lqf-6Z3WXa5kHZtdqc-3" vertex="1" connectable="0">
          <mxGeometry x="-0.6" y="-1" relative="1" as="geometry">
            <mxPoint as="offset" />
          </mxGeometry>
        </mxCell>
        <mxCell id="M5Lqf-6Z3WXa5kHZtdqc-6" style="edgeStyle=orthogonalEdgeStyle;rounded=0;orthogonalLoop=1;jettySize=auto;html=1;exitX=1;exitY=0.5;exitDx=0;exitDy=0;" parent="WIyWlLk6GJQsqaUBKTNV-1" source="M5Lqf-6Z3WXa5kHZtdqc-2" target="M5Lqf-6Z3WXa5kHZtdqc-5" edge="1">
          <mxGeometry relative="1" as="geometry" />
        </mxCell>
        <mxCell id="M5Lqf-6Z3WXa5kHZtdqc-7" value="YES" style="edgeLabel;html=1;align=center;verticalAlign=middle;resizable=0;points=[];" parent="M5Lqf-6Z3WXa5kHZtdqc-6" vertex="1" connectable="0">
          <mxGeometry x="-0.0858" y="4" relative="1" as="geometry">
            <mxPoint y="1" as="offset" />
          </mxGeometry>
        </mxCell>
        <mxCell id="M5Lqf-6Z3WXa5kHZtdqc-2" value="listen fd?" style="rhombus;whiteSpace=wrap;html=1;" parent="WIyWlLk6GJQsqaUBKTNV-1" vertex="1">
          <mxGeometry x="1405" y="620" width="130" height="80" as="geometry" />
        </mxCell>
        <mxCell id="M5Lqf-6Z3WXa5kHZtdqc-5" value="" style="rounded=0;whiteSpace=wrap;html=1;" parent="WIyWlLk6GJQsqaUBKTNV-1" vertex="1">
          <mxGeometry x="1660" y="630" width="120" height="60" as="geometry" />
        </mxCell>
      </root>
    </mxGraphModel>
  </diagram>
  <diagram id="qoZiQ2usrz6MhhohbSyl" name="Page-2">
    <mxGraphModel dx="1110" dy="461" grid="1" gridSize="10" guides="1" tooltips="1" connect="1" arrows="1" fold="1" page="1" pageScale="1" pageWidth="3300" pageHeight="2339" math="0" shadow="0">
      <root>
        <mxCell id="0" />
        <mxCell id="1" parent="0" />
        <mxCell id="2hiJMiJmGJHiG8X93-L3-1" value="Router" style="swimlane;fontStyle=0;childLayout=stackLayout;horizontal=1;startSize=30;horizontalStack=0;resizeParent=1;resizeParentMax=0;resizeLast=0;collapsible=1;marginBottom=0;" vertex="1" parent="1">
          <mxGeometry x="80" y="290" width="140" height="90" as="geometry" />
        </mxCell>
        <mxCell id="2hiJMiJmGJHiG8X93-L3-2" value="_eventHandler" style="text;strokeColor=none;fillColor=none;align=left;verticalAlign=middle;spacingLeft=4;spacingRight=4;overflow=hidden;points=[[0,0.5],[1,0.5]];portConstraint=eastwest;rotatable=0;" vertex="1" parent="2hiJMiJmGJHiG8X93-L3-1">
          <mxGeometry y="30" width="140" height="30" as="geometry" />
        </mxCell>
        <mxCell id="2hiJMiJmGJHiG8X93-L3-3" value="_virtualServers" style="text;strokeColor=none;fillColor=none;align=left;verticalAlign=middle;spacingLeft=4;spacingRight=4;overflow=hidden;points=[[0,0.5],[1,0.5]];portConstraint=eastwest;rotatable=0;" vertex="1" parent="2hiJMiJmGJHiG8X93-L3-1">
          <mxGeometry y="60" width="140" height="30" as="geometry" />
        </mxCell>
        <mxCell id="P4mFcyyi_vJH7qYrw_vq-4" value="getRoutedEvent 요청" style="edgeStyle=orthogonalEdgeStyle;rounded=0;orthogonalLoop=1;jettySize=auto;html=1;exitX=0.503;exitY=1.105;exitDx=0;exitDy=0;entryX=1;entryY=0.5;entryDx=0;entryDy=0;exitPerimeter=0;" edge="1" parent="1" source="2hiJMiJmGJHiG8X93-L3-9" target="2hiJMiJmGJHiG8X93-L3-21">
          <mxGeometry relative="1" as="geometry">
            <Array as="points">
              <mxPoint x="770" y="395" />
            </Array>
          </mxGeometry>
        </mxCell>
        <mxCell id="2hiJMiJmGJHiG8X93-L3-6" value="VirtualServer" style="swimlane;fontStyle=0;childLayout=stackLayout;horizontal=1;startSize=30;horizontalStack=0;resizeParent=1;resizeParentMax=0;resizeLast=0;collapsible=1;marginBottom=0;" vertex="1" parent="1">
          <mxGeometry x="700" y="150" width="140" height="120" as="geometry" />
        </mxCell>
        <mxCell id="2hiJMiJmGJHiG8X93-L3-7" value="_serverID" style="text;strokeColor=none;fillColor=none;align=left;verticalAlign=middle;spacingLeft=4;spacingRight=4;overflow=hidden;points=[[0,0.5],[1,0.5]];portConstraint=eastwest;rotatable=0;" vertex="1" parent="2hiJMiJmGJHiG8X93-L3-6">
          <mxGeometry y="30" width="140" height="30" as="geometry" />
        </mxCell>
        <mxCell id="2hiJMiJmGJHiG8X93-L3-8" value="_serverInfo" style="text;strokeColor=none;fillColor=none;align=left;verticalAlign=middle;spacingLeft=4;spacingRight=4;overflow=hidden;points=[[0,0.5],[1,0.5]];portConstraint=eastwest;rotatable=0;" vertex="1" parent="2hiJMiJmGJHiG8X93-L3-6">
          <mxGeometry y="60" width="140" height="30" as="geometry" />
        </mxCell>
        <mxCell id="2hiJMiJmGJHiG8X93-L3-9" value="Item 3" style="text;strokeColor=none;fillColor=none;align=left;verticalAlign=middle;spacingLeft=4;spacingRight=4;overflow=hidden;points=[[0,0.5],[1,0.5]];portConstraint=eastwest;rotatable=0;" vertex="1" parent="2hiJMiJmGJHiG8X93-L3-6">
          <mxGeometry y="90" width="140" height="30" as="geometry" />
        </mxCell>
        <mxCell id="2hiJMiJmGJHiG8X93-L3-18" value="EventHandler" style="swimlane;fontStyle=0;childLayout=stackLayout;horizontal=1;startSize=30;horizontalStack=0;resizeParent=1;resizeParentMax=0;resizeLast=0;collapsible=1;marginBottom=0;" vertex="1" parent="1">
          <mxGeometry x="360" y="290" width="140" height="120" as="geometry" />
        </mxCell>
        <mxCell id="2hiJMiJmGJHiG8X93-L3-19" value="_changeList" style="text;strokeColor=none;fillColor=none;align=left;verticalAlign=middle;spacingLeft=4;spacingRight=4;overflow=hidden;points=[[0,0.5],[1,0.5]];portConstraint=eastwest;rotatable=0;" vertex="1" parent="2hiJMiJmGJHiG8X93-L3-18">
          <mxGeometry y="30" width="140" height="30" as="geometry" />
        </mxCell>
        <mxCell id="2hiJMiJmGJHiG8X93-L3-20" value="_eventList" style="text;strokeColor=none;fillColor=none;align=left;verticalAlign=middle;spacingLeft=4;spacingRight=4;overflow=hidden;points=[[0,0.5],[1,0.5]];portConstraint=eastwest;rotatable=0;" vertex="1" parent="2hiJMiJmGJHiG8X93-L3-18">
          <mxGeometry y="60" width="140" height="30" as="geometry" />
        </mxCell>
        <mxCell id="2hiJMiJmGJHiG8X93-L3-21" value="_routedEvent" style="text;strokeColor=none;fillColor=none;align=left;verticalAlign=middle;spacingLeft=4;spacingRight=4;overflow=hidden;points=[[0,0.5],[1,0.5]];portConstraint=eastwest;rotatable=0;" vertex="1" parent="2hiJMiJmGJHiG8X93-L3-18">
          <mxGeometry y="90" width="140" height="30" as="geometry" />
        </mxCell>
        <mxCell id="P4mFcyyi_vJH7qYrw_vq-1" value="routeEvent&lt;br&gt;요청" style="edgeStyle=orthogonalEdgeStyle;rounded=0;orthogonalLoop=1;jettySize=auto;html=1;exitX=1;exitY=0.5;exitDx=0;exitDy=0;entryX=0;entryY=0.5;entryDx=0;entryDy=0;" edge="1" parent="1" source="2hiJMiJmGJHiG8X93-L3-3" target="2hiJMiJmGJHiG8X93-L3-20">
          <mxGeometry relative="1" as="geometry" />
        </mxCell>
        <mxCell id="P4mFcyyi_vJH7qYrw_vq-2" value="addNewEventToChangeList 요청" style="edgeStyle=orthogonalEdgeStyle;rounded=0;orthogonalLoop=1;jettySize=auto;html=1;exitX=0;exitY=0.5;exitDx=0;exitDy=0;" edge="1" parent="1" source="2hiJMiJmGJHiG8X93-L3-8" target="2hiJMiJmGJHiG8X93-L3-19">
          <mxGeometry relative="1" as="geometry">
            <mxPoint x="510" y="340" as="targetPoint" />
          </mxGeometry>
        </mxCell>
      </root>
    </mxGraphModel>
  </diagram>
</mxfile>
